<?xml version="1.0" encoding="utf-8"?>
<svg width="600" height="200" viewBox="0 0 600 200" fill="none" xmlns="http://www.w3.org/2000/svg">
  <g>
    <g>
      <rect width="600" height="200" />
      <path d="M66.9662 126.134C26.8232 126.12 0 97.6719 0 63.1791C0 63.1791 0 63.1791 0 63.1791C0 28.6863 26.8844 -0.0882568 66.905 0.000183105C66.905 0.000183105 445.095 0.000183105 445.095 0.000183105C485.116 -0.0881958 512 28.6864 512 63.1791C512 63.1791 512 63.1791 512 63.1791C512 97.6719 485.177 126.12 445.034 126.134C445.034 126.134 66.9662 126.134 66.9662 126.134ZM67.0886 15.5161C35.3087 15.5773 15.8016 36.8183 15.8016 63.0975C15.8016 63.0975 15.8016 63.0975 15.8016 63.0975C15.8016 89.37 35.1863 110.788 67.0886 110.672C67.0886 110.672 444.911 110.672 444.911 110.672C476.814 110.781 496.205 89.37 496.205 63.0975C496.205 63.0975 496.205 63.0975 496.205 63.0975C496.205 36.8251 476.698 15.5841 444.918 15.5229C444.918 15.5229 67.0886 15.5161 67.0886 15.5161ZM465.234 37.6954C468.124 37.6954 469.559 38.6745 469.559 40.6122C469.559 41.9449 468.729 42.9512 467.349 43.298C467.349 43.298 469.613 47.8195 469.613 47.8195L466.873 47.8195L464.935 43.6719L463.732 43.6719L463.732 47.8195L461.264 47.8195L461.264 37.6954C461.264 37.6954 465.234 37.6954 465.234 37.6954ZM465.01 33.7382C459.965 33.7382 455.872 37.8314 455.872 42.8765C455.872 47.9215 459.965 52.0147 465.01 52.0147C470.055 52.0147 474.148 47.9216 474.148 42.8765C474.148 37.8314 470.055 33.7382 465.01 33.7382C465.01 33.7382 465.01 33.7382 465.01 33.7382ZM472.401 42.8832C472.401 46.9628 469.09 50.274 465.01 50.274C460.931 50.274 457.619 46.9628 457.619 42.8832C457.619 38.8036 460.931 35.4924 465.01 35.4924C469.09 35.4924 472.401 38.7969 472.401 42.8832C472.401 42.8832 472.401 42.8832 472.401 42.8832ZM463.732 42.1897C463.732 42.1897 464.935 42.1897 464.935 42.1897C466.343 42.1897 467.023 41.7614 467.023 40.7551C467.023 39.7012 466.295 39.2456 464.813 39.2456C464.813 39.2456 463.732 39.2456 463.732 39.2456L463.732 42.1897ZM257.197 66.9323C257.169 63.4715 257.244 61.1597 258.38 59.1879C259.774 56.7538 262.337 55.5979 264.662 55.5843C264.662 55.5843 264.655 55.5843 264.655 55.5843C266.981 55.5979 269.544 56.7538 270.938 59.1879C272.073 61.1665 272.121 63.4783 272.094 66.9391C272.094 66.9391 257.197 66.9323 257.197 66.9323ZM272.033 78.8379C272.033 78.8379 272.046 79.0147 272.046 81.2313C272.046 88.4521 267.294 90.0568 264.655 90.0568C262.017 90.0568 257.183 88.4521 257.183 81.2313C257.183 79.0691 257.197 73.0789 257.197 73.0789C257.197 73.0789 290.833 73.0925 290.833 73.0719C290.833 60.8264 279.009 50.6818 264.486 50.6818C249.962 50.6818 238.193 60.6088 238.193 72.8543C238.193 85.0999 249.962 95.02 264.486 95.02C276.534 95.02 286.712 88.1459 289.82 78.824C289.82 78.824 272.033 78.8379 272.033 78.8379ZM328.215 51.3416C334.892 51.1512 348.436 55.5231 348.341 71.1547C348.328 73.9288 348.334 92.6404 348.334 92.6404C348.334 92.6404 330.595 92.6404 330.595 92.6404C330.595 92.6404 330.595 69.1761 330.595 66.7079C330.595 63.2675 327.304 59.4395 322.436 59.4395C317.574 59.4395 313.957 63.2675 313.957 66.7079C313.957 68.3942 313.977 92.6404 313.977 92.6404C313.977 92.6404 296.252 92.6404 296.252 92.6404L296.265 53.157C296.265 53.157 313.984 53.1434 313.984 53.1434C313.984 53.1434 313.964 56.3186 313.984 57.2977C317.397 54.0409 322.32 51.5115 328.215 51.3416C328.215 51.3416 328.215 51.3416 328.215 51.3416ZM183.105 51.3416C189.782 51.1512 203.326 55.5231 203.231 71.1547C203.217 73.9288 203.224 92.6404 203.224 92.6404C203.224 92.6404 185.484 92.6404 185.484 92.6404C185.484 92.6404 185.484 69.1761 185.484 66.7079C185.484 63.2675 182.194 59.4395 177.325 59.4395C172.464 59.4395 168.847 63.2675 168.847 66.7079C168.847 68.3942 168.867 92.6404 168.867 92.6404C168.867 92.6404 151.141 92.6404 151.141 92.6404L151.134 53.157C151.134 53.157 168.874 53.1434 168.874 53.1434C168.874 53.1434 168.853 56.3186 168.874 57.2977C172.287 54.0409 177.203 51.5115 183.104 51.3416C183.104 51.3416 183.105 51.3416 183.105 51.3416ZM386.825 33.2759L404.449 33.2759L404.449 92.6541C404.449 92.6541 386.798 92.6541 386.798 92.6541C386.798 92.6541 386.791 90.7366 386.791 90.3695C379.958 94.6599 372.247 94.6531 366.243 91.8517C364.632 91.1038 354.032 86.0179 354.032 72.2766C354.032 61.8533 363.864 50.4713 376.735 51.6C380.971 51.9739 383.983 53.5174 386.839 55.122C386.825 45.9838 386.825 33.2759 386.825 33.2759C386.825 33.2759 386.825 33.2759 386.825 33.2759ZM386.954 72.7117C386.954 72.7117 386.954 67.7618 386.954 65.6541C386.954 59.5483 382.739 57.9913 379.965 57.9913C377.122 57.9913 372.961 59.5483 372.961 65.6541C372.961 67.6802 372.968 72.6913 372.968 72.6913C372.968 72.6913 372.961 77.614 372.961 79.715C372.961 85.814 377.122 87.4118 379.958 87.4118C382.739 87.4118 386.961 85.814 386.961 79.715C386.961 77.1789 386.954 72.7118 386.954 72.7118C386.954 72.7118 386.954 72.7117 386.954 72.7117ZM443.531 72.5961C443.531 72.5961 443.524 78.5659 443.524 80.9592C443.524 87.2554 439.805 89.8527 436.229 89.8527C432.645 89.8527 428.913 87.2554 428.913 80.9592C428.913 78.5659 428.919 72.4465 428.919 72.4465C428.919 72.4465 428.933 66.606 428.933 64.2126C428.933 57.9437 432.673 55.3667 436.229 55.3667C439.792 55.3667 443.524 57.9436 443.524 64.2126C443.524 66.606 443.517 71.0323 443.538 72.6165C443.538 72.6165 443.531 72.5961 443.531 72.5961ZM436.358 50.4713C421.943 50.4713 410.262 60.3982 410.262 72.6437C410.262 84.8893 421.95 94.8162 436.358 94.8162C450.772 94.8162 462.454 84.8893 462.454 72.6437C462.454 60.3983 450.772 50.4713 436.358 50.4713C436.358 50.4713 436.358 50.4713 436.358 50.4713ZM123.407 45.399L123.407 33.2623L141.303 33.2623L141.303 45.399L123.407 45.399ZM123.448 92.6541L123.448 53.1638L141.303 53.1708L141.303 92.6542L123.448 92.6541ZM213.029 92.6541L213.036 53.2454L203.326 53.2454L203.326 47.3844L213.042 47.3774L213.029 39.3814L230.897 39.3814L230.897 47.3705L240.566 47.3705L240.566 53.2451L230.897 53.2451L230.911 92.6538L213.029 92.6541ZM50.7839 92.6541L50.7907 33.2759L69.2916 33.2759L94.8841 74.6835L94.8705 33.2759L113.229 33.2759L113.229 92.6541L94.8977 92.6541L69.1692 51.2464L69.1692 92.6541L50.7839 92.6541Z" fill="#FFFFFF" transform="translate(44 36.933)" />
    </g>
  </g>
</svg>